<svg xmlns="http://www.w3.org/2000/svg" xmlns:xlink="http://www.w3.org/1999/xlink" width="454" height="139.3000030517578" viewBox="0 0 454 139.3000030517578" fill="none"><path id="路径 1" fill-rule="evenodd" style="fill:#FFFFFF" opacity="1" d="M27,53.4c3.1,3.1 6.2,4.4 10.7,4.4c4.5,0 7.7,-1.3 10.7,-4.4c3.1,3.1 6.3,4.5 10.9,4.4c4.5,0 7.6,-1.3 10.7,-4.4c3.1,3.1 6.2,4.4 10.7,4.4c4.5,0 7.7,-1.3 10.7,-4.4c3.1,3.1 6.3,4.5 10.9,4.4c4.3,0 7.4,-1.2 10.5,-4.3c-4.8,18.6 -22.9,33.3 -42.9,33.3c-20.1,0 -38,-14.7 -42.9,-33.4c10,10.3 0.2,0 0.2,0zM27,53.4h0.2c0,0 9.8,10.3 -0.2,0zM113.2,43.5h-38.2c4.5,-2 7.6,-6.4 7.6,-11.6c0,-7 -5.7,-12.5 -12.7,-12.5c-6.8,0 -12.5,5.5 -12.5,12.5c0,5.3 3.3,9.8 8.1,11.6h-39.1c0,-24 19.5,-43.5 43.5,-43.5c23.9,0 43.3,19.5 43.3,43.5zM72.6,139.3c0.7,-36.9 29.7,-68.8 66.9,-70c0,37.2 -30,68 -66.9,70zM67.1,139.3c-36.9,-2 -67.1,-32.8 -67.1,-70c37.4,1.2 66.4,33.1 67.1,70zM240,3.1v20.7h-60.3v35h60.3v21h-60.3v36h60.3v20.4h-87.9v-133.1zM272.8,58.8h27.1c9.1,0 15.2,-8.6 15.1,-17.7c-0.1,-9 -6.1,-17.3 -15.1,-17.3h-25.3v112.4h-27.8v-133.1h62.3c20.2,0 35,17.8 35.2,38c0.2,20.4 -14.8,38.7 -35.2,38.7h-36.3zM315.9,136.2l51.3,-133.1h33.7l53.1,133.1h-29.7l-39.2,-107.6l-18.9,50.7h38.4l8.1,21.9h-54.2l-12.9,35z"></path></svg>